<svg
  width="200"
  height="200"
  viewBox="0 0 200 200"
  xmlns="http://www.w3.org/2000/svg"
>
  <!-- Sun -->
  <circle cx="100" cy="60" r="30" fill="yellow" stroke="orange" stroke-width="4" />

  <!-- Sun Rays -->
  <g stroke="orange" stroke-width="4">
    <line x1="100" y1="10" x2="100" y2="30" />
    <line x1="100" y1="90" x2="100" y2="110" />
    <line x1="140" y1="60" x2="160" y2="60" />
    <line x1="40" y1="60" x2="60" y2="60" />
    <line x1="130" y1="30" x2="145" y2="15" />
    <line x1="70" y1="30" x2="55" y2="15" />
    <line x1="130" y1="90" x2="145" y2="105" />
    <line x1="70" y1="90" x2="55" y2="105" />
  </g>

  <!-- Left Cloud (Blue) -->
  <g fill="lightblue" stroke="blue" stroke-width="2">
    <ellipse cx="60" cy="130" rx="30" ry="20" />
    <ellipse cx="85" cy="125" rx="25" ry="18" />
    <ellipse cx="40" cy="125" rx="25" ry="18" />
  </g>

  <!-- Right Cloud (Blue) -->
  <g fill="lightblue" stroke="blue" stroke-width="2">
    <ellipse cx="140" cy="140" rx="30" ry="20" />
    <ellipse cx="165" cy="135" rx="25" ry="18" />
    <ellipse cx="115" cy="135" rx="25" ry="18" />
  </g>
</svg>
